<svg width="20" height="15" viewBox="0 0 20 15" fill="none" xmlns="http://www.w3.org/2000/svg">
<path d="M7.9166 2.50016C6.48002 2.50016 5.10227 3.07085 4.08644 4.08667C3.07062 5.10249 2.49994 6.48024 2.49994 7.91683C2.49994 9.35342 3.07062 10.7312 4.08644 11.747C5.10227 12.7628 6.48002 13.3335 7.9166 13.3335H13.7499C14.2759 13.333 14.7959 13.2218 15.2761 13.0073C15.7564 12.7927 16.1861 12.4795 16.5374 12.088C16.8887 11.6965 17.1537 11.2355 17.3152 10.735C17.4767 10.2344 17.5311 9.70546 17.4748 9.18249C17.4186 8.65952 17.2529 8.15424 16.9887 7.69946C16.7244 7.24468 16.3675 6.85058 15.941 6.54276C15.5145 6.23493 15.028 6.02028 14.5131 5.91273C13.9982 5.80518 13.4665 5.80714 12.9524 5.9185C12.5519 4.90995 11.8577 4.04491 10.9598 3.43544C10.062 2.82596 9.00179 2.50014 7.9166 2.50016ZM13.7499 15.0002H7.9166C6.68347 14.9999 5.47177 14.6777 4.40136 14.0654C3.33096 13.4531 2.43894 12.572 1.81353 11.5093C1.18813 10.4465 0.851008 9.23884 0.83552 8.0058C0.820031 6.77276 1.12671 5.55703 1.72522 4.47888C2.32374 3.40073 3.19334 2.4975 4.24803 1.85855C5.30272 1.21959 6.50594 0.867043 7.73868 0.835774C8.97142 0.804506 10.191 1.0956 11.2767 1.68027C12.3624 2.26493 13.2767 3.12291 13.9291 4.16933C15.3522 4.21239 16.7011 4.814 17.684 5.84401C18.6669 6.87401 19.2047 8.24958 19.1812 9.67311C19.1576 11.0966 18.5746 12.4537 17.5582 13.4506C16.5417 14.4475 15.1737 15.0042 13.7499 15.0002Z" fill="#747578"/>
</svg>
