<svg width="12" height="19" viewBox="0 0 12 19" fill="none" xmlns="http://www.w3.org/2000/svg">
<path d="M2.66663 3.66683C2.66663 2.78277 3.01782 1.93493 3.64294 1.30981C4.26806 0.684686 5.1159 0.333496 5.99996 0.333496C6.88402 0.333496 7.73186 0.684686 8.35698 1.30981C8.9821 1.93493 9.33329 2.78277 9.33329 3.66683V8.046C10.3524 8.75564 11.1185 9.77203 11.52 10.9472C11.9215 12.1224 11.9375 13.3951 11.5656 14.58C11.1937 15.7649 10.4534 16.8001 9.45235 17.5351C8.45132 18.2701 7.24184 18.6665 5.99996 18.6665C4.75808 18.6665 3.5486 18.2701 2.54757 17.5351C1.54654 16.8001 0.806208 15.7649 0.434318 14.58C0.0624278 13.3951 0.0783949 12.1224 0.479895 10.9472C0.881395 9.77203 1.64747 8.75564 2.66663 8.046V3.66683ZM3.61996 9.41266C2.89177 9.91941 2.34433 10.6453 2.05734 11.4848C1.77034 12.3243 1.75878 13.2334 2.02433 14.0799C2.28987 14.9264 2.81867 15.666 3.53374 16.1911C4.2488 16.7162 5.1128 16.9994 5.99996 16.9994C6.88712 16.9994 7.75112 16.7162 8.46618 16.1911C9.18125 15.666 9.71004 14.9264 9.97559 14.0799C10.2411 13.2334 10.2296 12.3243 9.94258 11.4848C9.65559 10.6453 9.10815 9.91941 8.37996 9.41266L7.66663 8.91516V3.66683C7.66663 3.2248 7.49103 2.80088 7.17847 2.48832C6.86591 2.17576 6.44199 2.00016 5.99996 2.00016C5.55793 2.00016 5.13401 2.17576 4.82145 2.48832C4.50889 2.80088 4.33329 3.2248 4.33329 3.66683V8.91516L3.61996 9.41266ZM5.16663 9.60516V3.66683H6.83329V9.60516C7.61703 9.80994 8.29945 10.293 8.75313 10.9641C9.2068 11.6351 9.40071 12.4484 9.29866 13.252C9.1966 14.0556 8.80555 14.7946 8.19853 15.331C7.5915 15.8674 6.81001 16.1645 5.99996 16.1668C5.18807 16.1676 4.4038 15.8721 3.79435 15.3357C3.18491 14.7993 2.79218 14.0589 2.68989 13.2535C2.5876 12.448 2.78279 11.633 3.2388 10.9613C3.69482 10.2895 4.38031 9.80733 5.16663 9.60516ZM5.99996 14.5002C6.44199 14.5002 6.86591 14.3246 7.17847 14.012C7.49103 13.6994 7.66663 13.2755 7.66663 12.8335C7.66663 12.3915 7.49103 11.9675 7.17847 11.655C6.86591 11.3424 6.44199 11.1668 5.99996 11.1668C5.55793 11.1668 5.13401 11.3424 4.82145 11.655C4.50889 11.9675 4.33329 12.3915 4.33329 12.8335C4.33329 13.2755 4.50889 13.6994 4.82145 14.012C5.13401 14.3246 5.55793 14.5002 5.99996 14.5002Z" fill="#747578"/>
</svg>
